{"title":"Megamind DVDRip 2010 XviD-DEFACED [TheCloon]","uid":6164415,"size":798788198,"categoryP":"video","categoryS":"movies","magnet":"?xt=urn:btih:b17e008ed9eb6d8ff6928549edb953929ed1b39d&amp;dn=Megamind+DVDRip+2010+XviD-DEFACED+%5BTheCloon%5D&amp;tr=udp%3A%2F%2Ftracker.openbittorrent.com%3A80&amp;tr=udp%3A%2F%2Fopen.demonii.com%3A1337&amp;tr=udp%3A%2F%2Ftracker.coppersurfer.tk%3A6969&amp;tr=udp%3A%2F%2Fexodus.desync.com%3A6969","seeders":0,"leechers":1,"uploader":"TheCloon","files":-1,"time":1297333863,"description":"### TheCloon ###\n\n\n###\nMegamind DVDRip 2010 XviD-DEFACED [TheCloon]\n###\n\nSynopsis:\nThe supervillain Megamind finally conquers his nemesis, the hero Metro Man... but finds his life pointless without a hero to fight.\n\n[CODE]\n\nFormat                           : AVI\nFormat/Info                      : Audio Video Interleave\nFile size                        : 699 MiB\nDuration                         : 1h 35mn\nOverall bit rate                 : 1 022 Kbps\nWriting application              : VirtualDubMod 1.5.10.2 (build 2540/release)\nWriting library                  : VirtualDubMod build 2540/release\n\nVideo\nID                               : 0\nFormat                           : MPEG-4 Visual\nFormat profile                   : Advanced Simple@L5\nFormat settings, BVOP            : 2\nFormat settings, QPel            : No\nFormat settings, GMC             : No warppoints\nFormat settings, Matrix          : Default (H.263)\nCodec ID                         : XVID\nCodec ID/Hint                    : XviD\nDuration                         : 1h 35mn\nBit rate                         : 881 Kbps\nWidth                            : 640 pixels\nHeight                           : 272 pixels\nDisplay aspect ratio             : 2.35:1\nFrame rate                       : 23.976 fps\nColor space                      : YUV\nChroma subsampling               : 4:2:0\nBit depth                        : 8 bits\nScan type                        : Progressive\nCompression mode                 : Lossy\nBits/(Pixel*Frame)               : 0.211\nStream size                      : 603 MiB (86%)\nWriting library                  : XviD 1.2.1 (UTC 2008-12-04)\n\nAudio\nID                               : 1\nFormat                           : MPEG Audio\nFormat version                   : Version 1\nFormat profile                   : Layer 3\nMode                             : Joint stereo\nMode extension                   : MS Stereo\nCodec ID                         : 55\nCodec ID/Hint                    : MP3\nDuration                         : 1h 35mn\nBit rate mode                    : Variable\nBit rate                         : 128 Kbps\nChannel(s)                       : 2 channels\nSampling rate                    : 48.0 KHz\nCompression mode                 : Lossy\nDelay relative to video          : 576ms\nStream size                      : 87.7 MiB (13%)\nAlignment                        : Split accross interleaves\nInterleave, duration             : 24 ms (0.58 video frame)\nInterleave, preload duration     : 1508 ms\nWriting library                  : LAME3.90.\nEncoding settings                : -m j -V 4 -q 2 -lowpass 17.6 --abr 128\n[/CODE]\n &lt;a href=&quot;\nhttp://www.imdb.com/title/tt1001526/&quot; rel=&quot;nofollow&quot; target=&quot;_NEW&quot;&gt;\nhttp://www.imdb.com/title/tt1001526/&lt;/a&gt;","torrent":{"xt":"urn:btih:b17e008ed9eb6d8ff6928549edb953929ed1b39d","amp;dn":"Megamind+DVDRip+2010+XviD-DEFACED+%5BTheCloon%5D","amp;tr":["udp%3A%2F%2Ftracker.openbittorrent.com%3A80","udp%3A%2F%2Fopen.demonii.com%3A1337","udp%3A%2F%2Ftracker.coppersurfer.tk%3A6969","udp%3A%2F%2Fexodus.desync.com%3A6969"],"infoHash":"b17e008ed9eb6d8ff6928549edb953929ed1b39d","infoHashBuffer":{"type":"Buffer","data":[177,126,0,142,217,235,109,143,246,146,133,73,237,185,83,146,158,209,179,157]},"announce":[],"urlList":[]}}